<svg xmlns="http://www.w3.org/2000/svg" xmlns:xlink="http://www.w3.org/1999/xlink" viewBox="0 0 240.93 105.29"><defs><style>.cls-1{fill:none;}.cls-2{isolation:isolate;}.cls-3{opacity:0.75;mix-blend-mode:multiply;}.cls-4{clip-path:url(#clip-path);}.cls-5{clip-path:url(#clip-path-2);}.cls-6{fill:#a2a2a2;}.cls-7{fill:#0057a4;}.cls-8{clip-path:url(#clip-path-3);}.cls-9{clip-path:url(#clip-path-4);}.cls-10{fill:#df0446;}.cls-11{clip-path:url(#clip-path-5);}.cls-12{clip-path:url(#clip-path-6);}.cls-13{fill:#a2a3a4;}.cls-14{clip-path:url(#clip-path-7);}.cls-15{clip-path:url(#clip-path-8);}.cls-16{clip-path:url(#clip-path-9);}.cls-17{clip-path:url(#clip-path-10);}</style><clipPath id="clip-path"><rect class="cls-1" x="84.45" y="29.68" width="37.66" height="56.11"/></clipPath><clipPath id="clip-path-2"><rect class="cls-1" x="84.45" y="29.68" width="37.66" height="56.11"/></clipPath><clipPath id="clip-path-3"><rect class="cls-1" x="184.28" y="6.16" width="20.99" height="20.99"/></clipPath><clipPath id="clip-path-4"><rect class="cls-1" x="184.28" y="6.16" width="20.99" height="20.99"/></clipPath><clipPath id="clip-path-5"><rect class="cls-1" x="128.74" y="29.68" width="24.38" height="56.11"/></clipPath><clipPath id="clip-path-6"><rect class="cls-1" x="128.74" y="29.68" width="24.38" height="56.11"/></clipPath><clipPath id="clip-path-7"><rect class="cls-1" x="158.64" y="1.39" width="82.3" height="84.02"/></clipPath><clipPath id="clip-path-8"><rect class="cls-1" x="158.64" y="1.39" width="82.3" height="84.02"/></clipPath><clipPath id="clip-path-9"><rect class="cls-1" x="1.39" y="3.31" width="79.42" height="89.51"/></clipPath><clipPath id="clip-path-10"><rect class="cls-1" x="1.39" y="3.31" width="79.42" height="89.51"/></clipPath></defs><g class="cls-2"><g id="Capa_2" data-name="Capa 2"><g id="Capa_1-2" data-name="Capa 1"><g class="cls-3"><g class="cls-4"><g class="cls-5"><path class="cls-6" d="M94.74,29.68h18.53l-8.33,45.91h7.57a31.6,31.6,0,0,0,8.41-.85,8.89,8.89,0,0,1,1.19,4.67c0,5.36-5.18,6.38-10.54,6.38H84.45Z"/></g></g></g><path class="cls-7" d="M93.35,28.29h18.53l-8.33,45.9h7.56a31.64,31.64,0,0,0,8.42-.85A8.94,8.94,0,0,1,120.72,78c0,5.35-5.19,6.38-10.54,6.38H83.06Z"/><g class="cls-3"><g class="cls-8"><g class="cls-9"><path class="cls-6" d="M205.27,16.65a10.5,10.5,0,1,1-10.5-10.49,10.5,10.5,0,0,1,10.5,10.49"/></g></g></g><path class="cls-10" d="M203.87,15.26a10.5,10.5,0,1,1-10.49-10.5,10.5,10.5,0,0,1,10.49,10.5"/><g class="cls-3"><g class="cls-11"><g class="cls-12"><path class="cls-13" d="M146.47,66.79c.39-9.44,6.66-37.11,6.66-37.11H136s-4.87,27.55-7.2,40.76a26.21,26.21,0,0,0,.33,6.85c1.89,5.34,5.19,8.5,11.26,8.5a15.34,15.34,0,0,0,2.67-.23,10.86,10.86,0,0,0,8.4-6.12c-3.13-2-5.26-7.2-5-12.65"/></g></g></g><path class="cls-7" d="M145.07,65.4c.4-9.45,6.66-37.11,6.66-37.11H134.64L127.45,69a25.86,25.86,0,0,0,.33,6.86c1.88,5.34,5.19,8.5,11.26,8.5a15.34,15.34,0,0,0,2.67-.23,10.88,10.88,0,0,0,8.4-6.12c-3.13-2-5.27-7.2-5-12.65"/><g class="cls-3"><g class="cls-14"><g class="cls-15"><path class="cls-6" d="M236.84,1.74c-4.83-1-13.87-.33-19.12,9.87L185.75,75l-1.86-29.59c0-10.46-5.61-26.18-16.07-26.18-5,0-7.4,2.64-9.18,6,2.55,2,7.73,13.25,8.16,19.29l2.85,33.4s1.49,7.49,7.41,7.49h13S220,28.63,232.89,11.65c2.7-3.55,7-5.23,8-5.75-.55-2-1.49-3.6-4.09-4.16"/></g></g></g><path class="cls-10" d="M235.44.35c-4.83-1-13.86-.33-19.11,9.86l-32,63.35L182.49,44c0-10.46-5.61-26.18-16.06-26.18-5,0-7.4,2.63-9.19,6,2.55,2,7.74,13.26,8.16,19.3l2.85,33.4s1.5,7.49,7.42,7.49h13s29.91-56.78,42.8-73.76c2.69-3.56,7-5.23,8-5.76-.55-2-1.49-3.59-4.1-4.15"/><g class="cls-3"><g class="cls-16"><g class="cls-17"><path class="cls-6" d="M74.42,62.07,70.56,3.31h-27l-35.32,74c-1.55,3.08-4.43,6.2-6.82,6.84a9.3,9.3,0,0,0,5.18,7.2,13.25,13.25,0,0,0,2.1.89c4.92,1.62,8-.38,11-4.2a32.5,32.5,0,0,0,2.75-5.12A10.33,10.33,0,0,0,23,81.37c1.82-5.33,4-11,6.7-17.73H50.53a68.09,68.09,0,0,0,1.33,8.08c2,8.45,6.15,13.64,15.2,13.64,6.51,0,11.58-2.78,13.75-7.24-4.22-2.53-5.91-9.29-6.39-16.05m-41-8c4-9.29,8.44-19.91,14.84-33.9l1.81,33.9Z"/></g></g></g><path class="cls-7" d="M73,60.68,69.16,1.92h-27l-35.33,74C5.26,79,2.38,82.14,0,82.78A9.25,9.25,0,0,0,5.18,90a13.27,13.27,0,0,0,2.1.9c4.92,1.62,8.05-.38,11-4.2A32.5,32.5,0,0,0,21,81.55,9.35,9.35,0,0,0,21.56,80c1.81-5.34,4-11,6.7-17.73H49.14a70.5,70.5,0,0,0,1.32,8.08C52.51,78.77,56.62,84,65.67,84c6.51,0,11.58-2.77,13.75-7.23-4.22-2.54-5.91-9.29-6.4-16.05m-41-8c4-9.29,8.45-19.9,14.84-33.9l1.81,33.9Z"/><polygon class="cls-7" points="79.39 1.97 87.63 1.97 90.82 14.32 93.98 1.97 102.22 1.97 102.22 22.27 97.08 22.27 97.08 6.79 93.13 22.27 88.47 22.27 84.52 6.79 84.52 22.27 79.39 22.27 79.39 1.97"/><polygon class="cls-7" points="106.21 1.97 123.02 1.97 123.02 6.3 112.5 6.3 112.5 9.53 122.26 9.53 122.26 13.67 112.5 13.67 112.5 17.67 123.33 17.67 123.33 22.27 106.21 22.27 106.21 1.97"/><path class="cls-7" d="M126.79,2h9.32a11.14,11.14,0,0,1,4.45.75,7.19,7.19,0,0,1,2.8,2.14A8.9,8.9,0,0,1,145,8.12a15.17,15.17,0,0,1,.5,3.93,13.77,13.77,0,0,1-.74,5.05,8.24,8.24,0,0,1-2.06,3,6.77,6.77,0,0,1-2.82,1.62,14.52,14.52,0,0,1-3.74.55h-9.32Zm6.27,4.6V17.66h1.54a6.42,6.42,0,0,0,2.79-.44,3,3,0,0,0,1.31-1.52,9.69,9.69,0,0,0,.47-3.53q0-3.22-1-4.41a4.45,4.45,0,0,0-3.49-1.19Z"/><path class="cls-7" d="M153.12,1.92a4,4,0,0,0-4,4V18a4,4,0,1,0,8,0V5.9a4,4,0,0,0-4-4m-3.05,9.45V5.9a3.06,3.06,0,1,1,6.11,0v5.47Z"/><path class="cls-10" d="M205.68,79.87a4.43,4.43,0,1,1-4.39-4.31,4.35,4.35,0,0,1,4.39,4.31m-7.75,0a3.35,3.35,0,0,0,3.36,3.44,3.31,3.31,0,0,0,3.28-3.42,3.32,3.32,0,1,0-6.64,0m2.65,2.23h-1V77.79a12.26,12.26,0,0,1,1.66-.13,2.3,2.3,0,0,1,1.47.34,1.1,1.1,0,0,1,.44.92,1.11,1.11,0,0,1-.89,1v0c.42.13.63.47.76,1a3.66,3.66,0,0,0,.32,1h-1.05a3.49,3.49,0,0,1-.34-1c-.08-.45-.34-.66-.9-.66h-.47Zm0-2.42h.47c.55,0,1-.18,1-.63s-.29-.65-.92-.65a2.2,2.2,0,0,0-.55,0Z"/><path class="cls-7" d="M37,102.55H31.28l-1,2.07H28.09l4.93-11h2.27l4.93,11H38Zm-2.88-6.62-2,4.69H36.2Z"/><rect class="cls-7" x="40.85" y="93.64" width="1.9" height="10.99"/><path class="cls-7" d="M46.52,94.69a1.13,1.13,0,0,1-2.26,0,1.13,1.13,0,0,1,2.26,0m-2.09,9.93h1.92V96.84H44.43Z"/><polygon class="cls-7" points="56.11 96.86 52.81 104.66 50.73 104.66 47.42 96.86 49.51 96.86 50.58 99.42 51.77 102.69 52.95 99.45 54.02 96.86 56.11 96.86"/><path class="cls-7" d="M59.13,94.69a1.14,1.14,0,0,1-2.27,0,1.14,1.14,0,0,1,2.27,0M57,104.62H59V96.84H57Z"/><path class="cls-7" d="M66.83,96.88h1.84v7.74H66.86l-.09-1.13a3,3,0,0,1-2.52,1.37,4.09,4.09,0,0,1,0-8.17A2.82,2.82,0,0,1,66.77,98Zm-4.65,3.86a2.22,2.22,0,0,0,2.29,2.36c3,0,3-4.7,0-4.7a2.21,2.21,0,0,0-2.29,2.34"/><path class="cls-7" d="M75.44,104.62v-4.14c0-1-.53-2-1.59-2a1.77,1.77,0,0,0-1.65,2v4.14H70.29V96.86h1.77l.14.94a2.27,2.27,0,0,1,2-1.07,2.32,2.32,0,0,1,2.29,1.45,2.81,2.81,0,0,1,2.6-1.41c2.2,0,3.28,1.35,3.28,3.67v4.18H80.5v-4.18c0-1-.42-1.88-1.46-1.88a1.76,1.76,0,0,0-1.68,1.92v4.14Z"/><path class="cls-7" d="M92.07,100.76a4,4,0,1,1-4-4,3.92,3.92,0,0,1,4,4m-6.14,0a2.11,2.11,0,1,0,4.21,0A2.19,2.19,0,0,0,88,98.46a2.13,2.13,0,0,0-2.1,2.3"/><path class="cls-7" d="M98.45,98.93a2.65,2.65,0,0,0-1.92-.69c-.91,0-1.41.29-1.41.77s.46.79,1.45.85c1.46.1,3.31.43,3.31,2.49,0,1.36-1.11,2.54-3.33,2.54A4.51,4.51,0,0,1,93,103.51l.94-1.37a4.3,4.3,0,0,0,2.67,1.09c.72,0,1.4-.37,1.4-.93s-.44-.76-1.54-.82c-1.46-.11-3.21-.64-3.21-2.4s1.86-2.42,3.27-2.42a4.14,4.14,0,0,1,3,1Z"/><path class="cls-7" d="M106.31,95.09v2.2h2.13v1.65h-2.15v3.35a1,1,0,0,0,1,1.1,2.24,2.24,0,0,0,.93-.23l.53,1.63a4.39,4.39,0,0,1-1.59.33c-1.68.06-2.78-.89-2.78-2.83V98.94h-1.45V97.29h1.45v-2Z"/><path class="cls-7" d="M111.84,97.28v4a1.85,1.85,0,0,0,1.87,2.08,2,2,0,0,0,2-2.17v-4h1.9V105h-1.71l-.13-1.05a3.43,3.43,0,0,1-2.62,1.16c-1.86,0-3.21-1.4-3.21-3.8V97.28Z"/><path class="cls-7" d="M124.38,94v4.29a3.22,3.22,0,0,1,2.55-1.24,3.71,3.71,0,0,1,3.94,4,3.8,3.8,0,0,1-4,4.06,2.82,2.82,0,0,1-2.5-1.24l-.12,1.07h-1.8V94Zm.13,7.1a2.23,2.23,0,1,0,4.45,0,2.14,2.14,0,0,0-2.2-2.26,2.21,2.21,0,0,0-2.25,2.26"/><path class="cls-7" d="M140,101.16a4,4,0,1,1-4.06-4,3.92,3.92,0,0,1,4.06,4m-6.15,0a2.12,2.12,0,1,0,4.22,0A2.19,2.19,0,0,0,136,98.87a2.13,2.13,0,0,0-2.11,2.29"/><rect class="cls-7" x="141.31" y="94.04" width="1.9" height="10.99"/><path class="cls-7" d="M150,99.34a2.59,2.59,0,0,0-1.91-.69c-.92,0-1.42.28-1.42.77s.46.78,1.45.84c1.46.1,3.31.43,3.31,2.49,0,1.37-1.11,2.54-3.33,2.54a4.52,4.52,0,0,1-3.58-1.38l.94-1.37a4.25,4.25,0,0,0,2.67,1.09c.73,0,1.4-.36,1.4-.93s-.44-.75-1.54-.82c-1.46-.11-3.2-.64-3.2-2.4s1.85-2.42,3.26-2.42a4.14,4.14,0,0,1,3,1Z"/><path class="cls-7" d="M154.7,95.09a1.13,1.13,0,0,1-2.26,0,1.13,1.13,0,0,1,2.26,0M152.61,105h1.92V97.25h-1.92Z"/><rect class="cls-7" x="156.26" y="94.04" width="1.9" height="10.99"/><rect class="cls-7" x="159.84" y="94.04" width="1.9" height="10.99"/><path class="cls-7" d="M171.13,101.16a4,4,0,1,1-4.06-4,3.92,3.92,0,0,1,4.06,4m-6.15,0a2.11,2.11,0,1,0,4.21,0,2.19,2.19,0,0,0-2.1-2.29,2.13,2.13,0,0,0-2.11,2.29"/></g></g></g></svg>