<svg id="Capa_1" data-name="Capa 1" xmlns="http://www.w3.org/2000/svg" viewBox="0 0 152.68 81.52"><defs><style>.cls-1{fill:#fff;}.cls-2{fill:none;}</style></defs><path class="cls-1" d="M61.43,32.48a1.73,1.73,0,0,0,.44-.62c1.7-3.12,6.5-2.58,8.12-.6a2.34,2.34,0,0,1,.34,2.64c-1.48,3.31-2.93,6.64-4.21,10a29.68,29.68,0,0,0-1.74,6.14,7.13,7.13,0,0,0,0,1.6c.06.7.4.88,1,.58a3.88,3.88,0,0,0,.72-.47A12.58,12.58,0,0,0,70.26,46c1.57-4.57,3.41-9,5.23-13.53,1.52-3.77,6.47-3.37,8.3-1.2.35.42.53.36.89,0a11.09,11.09,0,0,1,5.4-2.92c4-.68,6.82,1.25,7.64,5.26a18.58,18.58,0,0,1-.55,8.7,34.91,34.91,0,0,1-5.71,12c-.09.12-.24.23-.22.42.18.12.3,0,.43-.11a13.78,13.78,0,0,0,6.69-8c1.56-4.84,3.54-9.53,5.45-14.24,1.5-3.69,6.38-3.4,8.26-1.22.41.48.61.35,1,0a11.1,11.1,0,0,1,5.11-2.83c4.16-.83,7.13,1.21,7.91,5.41a19.79,19.79,0,0,1-.81,9.29,34.71,34.71,0,0,1-5.5,11.28c-.09.12-.25.22-.18.49a13.53,13.53,0,0,0,2.27-1.42,13,13,0,0,0,5.21-7.38,68.65,68.65,0,0,1,5.28-13.23c.12-.24.25-.47.39-.7a5.23,5.23,0,0,1,7.51-1.65,2.54,2.54,0,0,1,1,3.56c-1.65,3.75-3.31,7.5-4.66,11.37a21.12,21.12,0,0,0-1.25,5.26,4,4,0,0,0,0,1c.11.6.38.75,1,.52a4.08,4.08,0,0,0,1-.69,29.47,29.47,0,0,0,4.9-5.67,1.77,1.77,0,0,1,2.58-.51,1.32,1.32,0,0,1,.44,1.88c-2.72,4.28-5.65,8.38-9.7,11.54a10,10,0,0,1-5.3,2.41c-2.85.24-4.63-1.21-5-4.07,0-.43-.06-.86-.11-1.29,0-.17.08-.39-.14-.48s-.35.09-.49.2a29.13,29.13,0,0,1-3.84,2.56,22.22,22.22,0,0,1-13.28,3.06,4.4,4.4,0,0,1-3.44-2c-.09-.15-.14-.37-.38-.35s-.23.25-.28.42c-1.24,4.28-2.53,8.54-3.49,12.88l-.06.3c-.33,2-1.19,2.65-3.16,2.54a5.67,5.67,0,0,1-4.91-3.88,5.38,5.38,0,0,1,.11-2.73c.85-3.64,1.88-7.22,3-10.79,0-.16.11-.32.14-.48s-.07-.44-.38-.28c-.15.08-.28.18-.42.27a24.77,24.77,0,0,1-10.41,4,19.68,19.68,0,0,1-4.79.05,4.26,4.26,0,0,1-3.25-2c-.09-.15-.15-.37-.39-.34s-.23.27-.28.43c-1.27,4.54-2.72,9-3.62,13.67a2.25,2.25,0,0,1-2,2,5.59,5.59,0,0,1-6-4.09,6.56,6.56,0,0,1,.25-2.85c.79-3.3,1.72-6.55,2.68-9.79,0-.12.08-.23.11-.35s.1-.3,0-.4-.3,0-.42.12c-.69.56-1.35,1.14-2.06,1.68a9,9,0,0,1-4.89,2,4,4,0,0,1-4.43-2.83c-.31-.83-.77-.92-1.41-.31a10.4,10.4,0,0,1-6.65,3.13,6,6,0,0,1-5.83-3.06,10.82,10.82,0,0,1-1.38-5.37A29.65,29.65,0,0,1,42,40.61a22.92,22.92,0,0,1,5.49-8.45,13.61,13.61,0,0,1,7.12-3.78,7.86,7.86,0,0,1,2.82,0,4.74,4.74,0,0,1,3.72,3.31l.24.69S61.39,32.44,61.43,32.48ZM88.88,36a9,9,0,0,0-.1-1c-.16-.81-.45-.93-1.13-.47a8.93,8.93,0,0,0-2.09,2.07,37.47,37.47,0,0,0-6.69,15,8.31,8.31,0,0,0-.2,3.06c.14,1,.48,1.09,1.26.54a7.8,7.8,0,0,0,1.47-1.4,37,37,0,0,0,6-11.29A24.48,24.48,0,0,0,88.88,36ZM106.93,53.6c0,.38,0,.71.06,1,.14.91.49,1.06,1.23.54a8.58,8.58,0,0,0,2-2,38.76,38.76,0,0,0,6.64-14.57,8.66,8.66,0,0,0,.26-3.65c-.16-.79-.43-.9-1.09-.47a8.93,8.93,0,0,0-2.14,2.11,35.58,35.58,0,0,0-5.46,10.49A24.81,24.81,0,0,0,106.93,53.6ZM48.87,52.47A8.69,8.69,0,0,0,49,54.38c.22.84.5.95,1.19.44a9,9,0,0,0,2.28-2.57,37.41,37.41,0,0,0,5.4-14,9.33,9.33,0,0,0,0-3.61c-.21-.9-.54-1-1.27-.47a8.61,8.61,0,0,0-1.87,2A34.7,34.7,0,0,0,51,43.66,27.1,27.1,0,0,0,48.87,52.47Z"/><path class="cls-1" d="M27.12,15.72a23.56,23.56,0,0,1,11.79,2.76c3,1.74,5.4,4.07,5.87,7.75A12.17,12.17,0,0,1,43,34.14,20.77,20.77,0,0,1,34.1,41.9a34.58,34.58,0,0,1-4.9,2c-.27.09-.54.14-.52.55.28,4.93,1.11,9.71,3.71,14a11.87,11.87,0,0,0,6.13,5.36,11.35,11.35,0,0,0,8.9-.67c.53-.23,1-.53,1.54-.77a1.66,1.66,0,0,1,2.08.55A1.57,1.57,0,0,1,50.8,65,26.43,26.43,0,0,1,39.94,71.1c-6.3,1.52-12-.87-15.61-6.53a27.92,27.92,0,0,1-3.76-10.21c-.15-.87-.25-1.74-.38-2.62,0-.19,0-.46-.25-.49s-.28.27-.32.44c-.7,2.51-1.45,5-1.91,7.57-.43,2.39-1.68,2.88-4,2.66a5.56,5.56,0,0,1-1.48-.38c-3-1.12-4-3.16-3.49-6.45A85.53,85.53,0,0,1,12.22,42.4a161.85,161.85,0,0,1,6.23-15.91,3.38,3.38,0,0,1,3-2.2,19.05,19.05,0,0,1,5.64.2,1.72,1.72,0,0,1,1.34,2.59c-1.85,4.05-3.44,8.2-5,12.38a2,2,0,0,0-.13.34c-.05.17-.19.35,0,.52s.35,0,.5-.07a20.87,20.87,0,0,0,4.38-2.73,15.73,15.73,0,0,0,5.38-7.71,10.77,10.77,0,0,0,.31-4.69,5.21,5.21,0,0,0-4.53-4.56,12.12,12.12,0,0,0-8.53,1.26A18.68,18.68,0,0,0,11.39,34a8.75,8.75,0,0,0-.18,1.53,2,2,0,0,1-1.83,2A4.94,4.94,0,0,1,4.17,34a7.21,7.21,0,0,1,.33-4.82,19.33,19.33,0,0,1,7.18-8.63A25.82,25.82,0,0,1,27.12,15.72Z"/><path class="cls-1" d="M137.11,20.14A5.89,5.89,0,1,1,143,25.93,5.87,5.87,0,0,1,137.11,20.14Z"/><rect class="cls-2" x="-475.68" y="-1540.55" width="2169" height="1561.5"/></svg>