<svg id="Capa_1" data-name="Capa 1" xmlns="http://www.w3.org/2000/svg" viewBox="0 0 173.03 211.57"><defs><style>.cls-1{fill:#df4242;}.cls-2{fill:#003087;}.cls-3{fill:#fff;}.cls-4{fill:#221c59;}.cls-5{fill:#a2aecf;}.cls-6{fill:#ffd2d0;}.cls-7{fill:#8e2f33;}</style></defs><path class="cls-1" d="M17,97.24H13.1l.16,57.42v1.6a9,9,0,0,0,9,9l62.44-.18,0-6.4A67.86,67.86,0,0,1,17,97.24Z"/><path class="cls-2" d="M152,96.86H156l.16,57.43v1.59a9,9,0,0,1-9,9l-62.43.17-.09-6.41A67.84,67.84,0,0,0,152,96.86Z"/><path class="cls-2" d="M44,171.71l6.67,0a14.51,14.51,0,0,0-1.25,2.24,20.81,20.81,0,0,0-.88,2.76L44,194.33a24.38,24.38,0,0,1-1,3.31,5.48,5.48,0,0,1-1.25,1.73,5.89,5.89,0,0,1-2.94,1.35,7.74,7.74,0,0,1-1.72.21l-17,.06c-.64,0-1.51-.05-2.6-.14a4.55,4.55,0,0,1-3.18-1.52,5,5,0,0,1-1.2-3.44,11.9,11.9,0,0,1,.42-2.88L18,175.64a9.66,9.66,0,0,0,.27-2.3,4.72,4.72,0,0,0-.31-1.56l13.08,0A12.82,12.82,0,0,0,29.82,174a18.77,18.77,0,0,0-.87,2.76l-4.23,16.48a5.37,5.37,0,0,0-.21,1.33,1.37,1.37,0,0,0,.58,1.29,4.93,4.93,0,0,0,2.23.32l8.92,0a3.34,3.34,0,0,0,2.27-.6,2.2,2.2,0,0,0,.55-.71,14.34,14.34,0,0,0,.49-1.76L44,175.57a8.32,8.32,0,0,0,.27-2.29A4.81,4.81,0,0,0,44,171.71Z"/><path class="cls-2" d="M60.62,179.43l-.51,2a3.74,3.74,0,0,1,1.32-1.62,5,5,0,0,1,2.27-.37l7,0a5.81,5.81,0,0,1,4.53,1.7,5.55,5.55,0,0,1,1.49,3.81,14.36,14.36,0,0,1-.51,3.43L74,197a9,9,0,0,0-.28,2.31,4.42,4.42,0,0,0,.32,1.54l-12.36,0A12.27,12.27,0,0,0,63,198.66a19,19,0,0,0,.87-2.77l2.41-9.52a13.12,13.12,0,0,0,.36-1.68,1,1,0,0,0-.92-1.05,5.87,5.87,0,0,0-1.09-.06H62.07a2.77,2.77,0,0,0-1.76.41,3.14,3.14,0,0,0-.82,1.65L56.59,197a9.48,9.48,0,0,0-.28,2.33,5.5,5.5,0,0,0,.26,1.51l-12.35,0a14.89,14.89,0,0,0,1.24-2.2,18,18,0,0,0,.89-2.78l3.24-12.62a9.6,9.6,0,0,0,.27-2.3,4.25,4.25,0,0,0-.32-1.55Z"/><path class="cls-2" d="M93.73,179.34l-4.48,17.59a9.3,9.3,0,0,0-.27,2.35,5.12,5.12,0,0,0,.25,1.51l-12.35,0a12.51,12.51,0,0,0,1.26-2.21,22.38,22.38,0,0,0,.87-2.77l3.24-12.62a9.6,9.6,0,0,0,.27-2.3,4.79,4.79,0,0,0-.31-1.56Zm2-7.77-1.43,5.69-10.52,0,1.46-5.7Z"/><path class="cls-2" d="M105.21,179.31l13,0a12.48,12.48,0,0,1,2.25.14A5.44,5.44,0,0,1,122,180a5,5,0,0,1,2,2,5.66,5.66,0,0,1,.72,2.82,9.86,9.86,0,0,1-.36,2.45l-2,7.85a11.33,11.33,0,0,1-1,2.63,5.8,5.8,0,0,1-1.53,1.67,5.47,5.47,0,0,1-2.24,1,19.28,19.28,0,0,1-3.84.27l-13,0a19.46,19.46,0,0,1-3.38-.17,4.17,4.17,0,0,1-1.76-.86,5.23,5.23,0,0,1-2-4.31,6.45,6.45,0,0,1,.26-1.81l2.4-9.41A5.73,5.73,0,0,1,99,180.38C100.25,179.67,102.34,179.32,105.21,179.31Zm1.3,6.06-2.22,8.77a11.35,11.35,0,0,0-.28,1.23,1,1,0,0,0,.5.93,3.18,3.18,0,0,0,1.58.28h3.12a3.63,3.63,0,0,0,1.91-.34,2.53,2.53,0,0,0,.79-1.49l2.14-8.31a6.72,6.72,0,0,0,.26-1.52,1.27,1.27,0,0,0-.53-1.13,3.13,3.13,0,0,0-1.68-.34h-2.65a4.23,4.23,0,0,0-2.06.37A2.65,2.65,0,0,0,106.51,185.37Zm13.21-15.15-5.67,7-5.92,0,4.36-7Z"/><path class="cls-2" d="M140.3,179.21l-.5,2a3.79,3.79,0,0,1,1.3-1.62,4.93,4.93,0,0,1,2.27-.37l7.06,0a5.83,5.83,0,0,1,4.53,1.7,5.45,5.45,0,0,1,1.48,3.81,14.29,14.29,0,0,1-.5,3.43l-2.23,8.65a9.44,9.44,0,0,0-.27,2.31,4.14,4.14,0,0,0,.33,1.53l-12.36,0a12.87,12.87,0,0,0,1.24-2.2,20,20,0,0,0,.86-2.79l2.41-9.51a11.68,11.68,0,0,0,.36-1.68,1,1,0,0,0-.93-1.05,4.9,4.9,0,0,0-1.08-.06h-2.53a2.85,2.85,0,0,0-1.75.4,3.15,3.15,0,0,0-.82,1.66l-2.9,11.39a9,9,0,0,0-.27,2.33,4.89,4.89,0,0,0,.26,1.51l-12.36,0a14.22,14.22,0,0,0,1.25-2.21,19,19,0,0,0,.88-2.78l3.24-12.61a9.12,9.12,0,0,0,.28-2.3,4.82,4.82,0,0,0-.32-1.56Z"/><path class="cls-2" d="M142.07,90.76a57.55,57.55,0,1,1-57.71-57.4A57.54,57.54,0,0,1,142.07,90.76Z"/><path class="cls-1" d="M22.31,91.09a62.21,62.21,0,1,0,62-62.39A62.28,62.28,0,0,0,22.31,91.09Zm4.69,0a57.52,57.52,0,1,1,57.68,57.36A57.58,57.58,0,0,1,27,91.08Z"/><path class="cls-3" d="M48.58,53.06a1.54,1.54,0,0,0-1.39,1.12c-.23.9-5.66,21.86,8.19,35.13L57.5,87.1c-6.84-6.54-8.41-15.44-8.44-22.21a43.49,43.49,0,0,1,.86-8.82c31.71-1.53,36,19,36.21,19.9l3-.56C89.08,75.17,84.16,50.78,48.58,53.06Z"/><path class="cls-3" d="M74.46,92.8l3-.81c0-.11-3-11.45,3.31-20.36l-2.47-1.78C71,80,74.32,92.27,74.46,92.8Z"/><path class="cls-3" d="M86.6,62.25l2.21,2.11c10.44-10.9,26.8-8.44,31-7.58,0,1.07.11,2.14.12,3.15.07,28.89-19.17,32.91-20,33.07l.57,3c.23,0,24.63-4.95,22.35-40.55a1.53,1.53,0,0,0-1.13-1.38C120.84,53.83,99.86,48.4,86.6,62.25Z"/><path class="cls-3" d="M83.11,81.33l.81,2.94c.12,0,11.44-3,20.36,3.33l1.77-2.48C95.93,77.89,83.63,81.18,83.11,81.33Z"/><path class="cls-3" d="M111.54,94.74c6.83,6.55,8.41,15.43,8.43,22.22a44.93,44.93,0,0,1-.84,8.82c-31.73,1.52-36.06-19-36.22-19.92l-3,.57c.06.24,5,24.63,40.57,22.35a1.51,1.51,0,0,0,1.37-1.13c.24-.88,5.67-21.85-8.19-35.12Z"/><path class="cls-3" d="M91.63,89.85c0,.11,3,11.45-3.32,20.36L90.8,112C98,101.87,94.72,89.56,94.57,89Z"/><path class="cls-3" d="M46.18,126.4a1.52,1.52,0,0,0,1.14,1.37c.88.25,21.85,5.67,35.12-8.19l-2.2-2.1c-10.45,10.9-26.81,8.44-31,7.58-.05-1.07-.11-2.14-.11-3.16C49,93,68.25,89,69.1,88.84l-.56-3C68.3,85.88,43.91,90.81,46.18,126.4Z"/><path class="cls-3" d="M63,96.72c10.12,7.22,22.44,3.93,23,3.79l-.8-2.94c-.12,0-11.46,3-20.37-3.33Z"/><path class="cls-2" d="M8.06,89.85l2.44,0,0-3.36a3.12,3.12,0,0,0-.24-1.29h2.21a3.2,3.2,0,0,0-.25.71,6.39,6.39,0,0,0-.07.92l0,3,2.84,0a2.68,2.68,0,0,0,1.5-.41l0,4.65A2.63,2.63,0,0,0,15,93.73l-7.1,0a2.54,2.54,0,0,0-1.49.41l.06-8.83,1.9-.3a3.21,3.21,0,0,0-.2.72c0,.18-.05.64-.05,1.39Z"/><path class="cls-2" d="M7,80.31l.7-4.4,9.35-2.09a4.29,4.29,0,0,0,1.31-.59l-.81,5a1,1,0,0,0-.62-.36,2.72,2.72,0,0,0-1,.09l-1.14.29-.65,4.1,1.27.85a1.81,1.81,0,0,0,.66.28,1.78,1.78,0,0,0,.67-.08l-.44,2.78a8.08,8.08,0,0,0-1.68-1.49L7.66,80A2,2,0,0,0,7,80.31Zm6.05-1.62-3.28.78,2.85,1.89Z"/><path class="cls-2" d="M16.09,66.83,15.7,68l2.67.93a2.55,2.55,0,0,0,1.55.08l-1.53,4.41a2.62,2.62,0,0,0-1.28-.88l-6.7-2.33a2.67,2.67,0,0,0-1.56-.09l2.72-7.85A6.1,6.1,0,0,1,12.1,61a1.57,1.57,0,0,1,.62-.58,2,2,0,0,1,1.7-.08l2.06.71a2.29,2.29,0,0,1,.88.49,1.1,1.1,0,0,1,.17,1.16,1.43,1.43,0,0,1-.1.25l3.23-.34a8.42,8.42,0,0,0,1.55-.28l-1.44,4.18Zm-1.95.59.7-2c.12-.32.14-.54.07-.66a1.23,1.23,0,0,0-.63-.39l-.48-.16a1.8,1.8,0,0,0-.9-.17c-.15.06-.28.28-.42.67l-.67,1.94Z"/><path class="cls-2" d="M21.92,54.08l-4-4.6L20.52,45a2.62,2.62,0,0,0,1.09,1.12l6.13,3.57a2.58,2.58,0,0,0,1.5.39l-2.34,4A2.53,2.53,0,0,0,25.82,53L20.47,49.9,25.8,56l-1.38,2.35L16.5,56.73l5.34,3.11a2.4,2.4,0,0,0,1.51.38l-1.27,2.19A2.59,2.59,0,0,0,21,61.29l-6.14-3.57a2.59,2.59,0,0,0-1.5-.39L16,52.85Z"/><path class="cls-2" d="M24.27,40.6l2.94-3.34,9,3.21a4.41,4.41,0,0,0,1.41.2l-3.35,3.82a1.09,1.09,0,0,0-.34-.64,2.49,2.49,0,0,0-.91-.46L31.92,43l-2.74,3.11.63,1.39a1.79,1.79,0,0,0,.4.6,1.7,1.7,0,0,0,.63.28L29,50.54a8.76,8.76,0,0,0-.63-2.17L25,40.69A2.17,2.17,0,0,0,24.27,40.6Zm6,1.86-3.19-1.08,1.41,3.1Z"/><path class="cls-2" d="M37.85,27.59,39.44,29a2.18,2.18,0,0,0-.78.2,6.09,6.09,0,0,0-.93.68L36.1,31.19a3.36,3.36,0,0,0-.46.44.51.51,0,0,0-.11.33.77.77,0,0,0,.09.36,6,6,0,0,0,.43.58l2.74,3.29a1.36,1.36,0,0,0,.83.57,1.64,1.64,0,0,0,1-.49L42.12,35a4.88,4.88,0,0,0,1.28-1.48l1,1.72-4.77,4a2.47,2.47,0,0,1-2,.61,2.24,2.24,0,0,1-.91-.32,4.7,4.7,0,0,1-.89-.87L33.07,35.3a5,5,0,0,1-.68-1,2.09,2.09,0,0,1-.15-.95,2.48,2.48,0,0,1,1-1.88Z"/><path class="cls-2" d="M49.11,32.23l-3.9,2.56a2.52,2.52,0,0,0-.48-1.47l-3.89-5.94a2.62,2.62,0,0,0-1.18-1l3.9-2.57A2.57,2.57,0,0,0,44,25.28l3.9,5.93A2.59,2.59,0,0,0,49.11,32.23Z"/><path class="cls-2" d="M48.18,21.16l4-1.95,7.08,6.45a4.22,4.22,0,0,0,1.23.73l-4.57,2.23a.94.94,0,0,0-.07-.72,2.49,2.49,0,0,0-.66-.78l-.89-.76-3.72,1.82,0,1.51a1.7,1.7,0,0,0,.15.71,1.81,1.81,0,0,0,.46.51l-2.54,1.23a7.57,7.57,0,0,0,.25-2.23l-.12-8.39A1.92,1.92,0,0,0,48.18,21.16Zm4.81,4L50.46,23l.09,3.42Z"/><path class="cls-2" d="M66.3,14.28l.93,1.85a2.06,2.06,0,0,0-1.25,0l-.42.12-3.34,1a1,1,0,0,0-.49.26.57.57,0,0,0,0,.44l.11.33c.08.25.17.39.28.44a1.4,1.4,0,0,0,.67-.08l2.38-.72a7.33,7.33,0,0,1,1.36-.3,1.44,1.44,0,0,1,.78.15,2.16,2.16,0,0,1,1,1.4l.79,2.66a2.13,2.13,0,0,1-.18,1.72,1.94,1.94,0,0,1-.6.58,5.66,5.66,0,0,1-1.19.47l-6.4,1.9-.91-1.83a2.28,2.28,0,0,0,.85.05A9.71,9.71,0,0,0,62,24.36l2.8-.84a2.66,2.66,0,0,0,.6-.21.38.38,0,0,0,.11-.19.9.9,0,0,0-.06-.35l-.09-.31a.91.91,0,0,0-.23-.44c-.08-.07-.21-.07-.39,0L62,22.81a6.89,6.89,0,0,1-1.32.3,1.44,1.44,0,0,1-.79-.1,2.17,2.17,0,0,1-1-1.45l-.79-2.66a2.1,2.1,0,0,1,.19-1.71,1.78,1.78,0,0,1,.59-.6A7.24,7.24,0,0,1,60,16.14Z"/><path class="cls-2" d="M73.79,23a2.5,2.5,0,0,0,.31-1.51l-.54-7.1A2.64,2.64,0,0,0,73,12.91l8.31-.64a3.16,3.16,0,0,1,1.14.14,2.25,2.25,0,0,1,.92.53,3,3,0,0,1,.72,2l.34,4.3a3.06,3.06,0,0,1-.41,2.11,2.5,2.5,0,0,1-.83.66,2.88,2.88,0,0,1-1.11.31Zm4.11-2,1.83-.13a1.16,1.16,0,0,0,.8-.29,1.75,1.75,0,0,0,.12-1l-.34-4.39a2.16,2.16,0,0,0-.19-.88,1,1,0,0,0-.9-.23l-1.83.14Z"/><path class="cls-2" d="M90.42,14.14l-.19,2.45,3.08.25a3.52,3.52,0,0,0,1.45-.12l-.17,2.15a2,2,0,0,0-1.12-.36l-3.38-.27-.21,2.66,3.73.29A4.4,4.4,0,0,0,95.07,21l-.49,2-9.07-.72a2.54,2.54,0,0,0,.54-1.45l.57-7.1a2.56,2.56,0,0,0-.3-1.52l8.86.72.14,1.9a3.41,3.41,0,0,0-.7-.24,10.11,10.11,0,0,0-1.06-.13Z"/><path class="cls-1" d="M99.21,23.71a2.58,2.58,0,0,0,.84-1.3l2.09-6.8a2.49,2.49,0,0,0,0-1.55l8,2.45a3.34,3.34,0,0,1,1,.54,2.58,2.58,0,0,1,.67.83,3.19,3.19,0,0,1-.07,2.15l-1.27,4.13A3,3,0,0,1,109.34,26a2.39,2.39,0,0,1-1,.31,3,3,0,0,1-1.15-.12Zm4.54-.34,1.75.55a1.18,1.18,0,0,0,.85,0,1.72,1.72,0,0,0,.47-.87l1.29-4.22a2,2,0,0,0,.14-.88c-.08-.24-.34-.42-.75-.55l-1.75-.54Z"/><path class="cls-1" d="M117.82,21.55l-1.08,2.21,2.79,1.36a3.5,3.5,0,0,0,1.39.42l-1,1.94a2,2,0,0,0-.91-.75l-3-1.49-1.18,2.4,3.37,1.64a4.37,4.37,0,0,0,1.45.33l-1.19,1.64-8.17-4a2.51,2.51,0,0,0,1-1.15l3.14-6.39a2.62,2.62,0,0,0,.27-1.52l8,3.91-.57,1.82a4.75,4.75,0,0,0-.55-.49c-.15-.09-.46-.26-.94-.5Z"/><path class="cls-1" d="M132.24,28.39l-.86,1.88a2,2,0,0,0-.75-1l-.37-.25-2.87-2a1.08,1.08,0,0,0-.51-.21.51.51,0,0,0-.36.26l-.19.28c-.15.22-.21.38-.17.49s.2.27.49.47l2,1.4a7.18,7.18,0,0,1,1.09.87,1.43,1.43,0,0,1,.38.7,2.18,2.18,0,0,1-.44,1.69l-1.57,2.28a2.06,2.06,0,0,1-1.45.93,1.68,1.68,0,0,1-.84-.09,6.08,6.08,0,0,1-1.1-.63l-5.51-3.78.85-1.86a2.36,2.36,0,0,0,.5.69,8.27,8.27,0,0,0,1.1.84l2.41,1.66a3.44,3.44,0,0,0,.54.32.34.34,0,0,0,.23,0,.77.77,0,0,0,.22-.26l.18-.27a.78.78,0,0,0,.21-.45c0-.11-.08-.21-.24-.31l-2.33-1.61a7.22,7.22,0,0,1-1.08-.85,1.82,1.82,0,0,1-.42-.67,2.17,2.17,0,0,1,.48-1.72l1.57-2.29a2.14,2.14,0,0,1,1.45-.94,1.9,1.9,0,0,1,.83.09,5.94,5.94,0,0,1,1.1.64Z"/><path class="cls-1" d="M140.66,35.9l-1.15,1.77a1.94,1.94,0,0,0-.29-.74,6.69,6.69,0,0,0-.8-.85l-1.56-1.43a2.71,2.71,0,0,0-.5-.4.5.5,0,0,0-.34-.07.77.77,0,0,0-.34.14,3.76,3.76,0,0,0-.52.51L132.25,38a1.36,1.36,0,0,0-.46.89,1.67,1.67,0,0,0,.6.9l1.47,1.35a5,5,0,0,0,1.64,1.08l-1.58,1.24-4.54-4.21a2.56,2.56,0,0,1-.88-1.93,2.2,2.2,0,0,1,.22-.94,4,4,0,0,1,.74-1l2.93-3.17a4.49,4.49,0,0,1,.94-.82,2.16,2.16,0,0,1,.92-.28,2.51,2.51,0,0,1,2,.72Z"/><path class="cls-1" d="M145.28,41.27a2.46,2.46,0,0,0-1.44.6l-4.52,3.56a2,2,0,0,0-.62.64,1,1,0,0,0,.31.87l1.92,2.45c.26.32.48.5.67.49a1.51,1.51,0,0,0,.87-.44L147,45.87a2.45,2.45,0,0,0,.91-1.25l1.56,2a2.53,2.53,0,0,0-1.43.59l-4.49,3.54a4.8,4.8,0,0,1-1.05.66,2.26,2.26,0,0,1-1,.13,2.55,2.55,0,0,1-1.86-1l-3.37-4.28a2.52,2.52,0,0,1-.57-2,2.24,2.24,0,0,1,.36-.9,4.5,4.5,0,0,1,.88-.86l4.49-3.54a2.58,2.58,0,0,0,.91-1.25Z"/><path class="cls-1" d="M151.1,52.77,149,54l1.51,2.7a3.37,3.37,0,0,0,.91,1.13l-1.89,1.06a1.78,1.78,0,0,0-.32-1.13l-1.66-3-2.32,1.31L147,59.35a4.28,4.28,0,0,0,1,1.09l-1.92.69-4.45-7.94a2.52,2.52,0,0,0,1.5-.36l6.22-3.48a2.7,2.7,0,0,0,1.09-1.09L154.81,56l-1.49,1.18a5.79,5.79,0,0,0-.19-.72,10,10,0,0,0-.49-.95Z"/><path class="cls-1" d="M157.74,63.13l-6.21,6.43,6.15-2.27a2.61,2.61,0,0,0,1.26-.91l.87,2.36a2.56,2.56,0,0,0-1.56.12l-8.07,3-1.68-4.58,6.3-6.65-6.31,2.32a2.46,2.46,0,0,0-1.25.91l-.87-2.36a2.64,2.64,0,0,0,1.54-.12l6.67-2.46a2.59,2.59,0,0,0,1.26-.91Z"/><path class="cls-1" d="M150.77,74.76a2.49,2.49,0,0,0,1.54.13l6.81-1.35-.34-1.75a3.37,3.37,0,0,0-.22-.77,1.66,1.66,0,0,0-.35-.49l2-.09,1.84,9.3-1.86.68a2,2,0,0,0,.13-.59,4.47,4.47,0,0,0-.1-.8l-.34-1.74-6.81,1.35a2.56,2.56,0,0,0-1.39.71Z"/><path class="cls-1" d="M162.48,84.81l.2,5.89a3,3,0,0,1-.18,1.14,2.7,2.7,0,0,1-.56.9,3.07,3.07,0,0,1-2.06.63l-4.32.15a3,3,0,0,1-2.08-.5,2.31,2.31,0,0,1-.63-.85,2.91,2.91,0,0,1-.26-1.12l-.2-5.89a3.17,3.17,0,0,1,.18-1.14,2.28,2.28,0,0,1,.57-.9,3,3,0,0,1,2.05-.63l4.32-.15a3,3,0,0,1,2.08.5,2.31,2.31,0,0,1,.63.85A3.11,3.11,0,0,1,162.48,84.81Zm-2.8,1.35-4.4.15a2,2,0,0,0-.88.16,1,1,0,0,0-.28.89l0,1.37c0,.42.09.69.25.81a1.57,1.57,0,0,0,1,.16l4.41-.15a2,2,0,0,0,.88-.16,1,1,0,0,0,.27-.89l0-1.51a.86.86,0,0,0-.27-.69A1.73,1.73,0,0,0,159.68,86.16Z"/><path class="cls-4" d="M128.09,55.59a56.24,56.24,0,0,1-87,71.29,56.24,56.24,0,1,0,87-71.29Z"/><path class="cls-5" d="M41.14,126.9a56.24,56.24,0,0,1,87-71.28,56.24,56.24,0,1,0-87,71.28Z"/><path class="cls-6" d="M25.88,75.46a61.36,61.36,0,0,1,99.49-30.27A61.37,61.37,0,1,0,43.8,136.88,61.43,61.43,0,0,1,25.88,75.46Z"/><path class="cls-7" d="M143.23,106.56a61.37,61.37,0,0,1-99.49,30.27,61.37,61.37,0,1,0,81.57-91.7A61.47,61.47,0,0,1,143.23,106.56Z"/><path class="cls-5" d="M103.84,157.46a52.42,52.42,0,0,0,46.1-45.19A63.85,63.85,0,0,1,103.84,157.46Z"/><path class="cls-7" d="M67.83,158.09c-19.27-1.93-23.45-12.41-22.48-10.51C48.74,150.44,53.6,155.33,67.83,158.09Z"/><polygon class="cls-7" points="45.07 164.14 83.43 164.03 83.42 159.42 82.18 162.86 45.07 164.14"/><path class="cls-6" d="M19.36,159.2c-4.55-4.53-3.91-43.87-3.91-43.87l.13,42.56h0a5.67,5.67,0,0,0,5.7,5.51l10.46,0S23.92,163.72,19.36,159.2Z"/><path class="cls-4" d="M149.88,158.83c4.52-4.55,3.66-43.88,3.66-43.88l.12,42.55h0a5.69,5.69,0,0,1-5.67,5.55l-31.7.09S145.35,163.38,149.88,158.83Z"/><path class="cls-2" d="M160.86,194.25a3.24,3.24,0,0,1,1.58.41,3,3,0,0,1,1.2,1.18,3.36,3.36,0,0,1,.44,1.61,3.24,3.24,0,0,1-.43,1.59,2.9,2.9,0,0,1-1.18,1.2,3.36,3.36,0,0,1-1.59.43,3.45,3.45,0,0,1-1.61-.42,3.07,3.07,0,0,1-1.18-1.19,3.27,3.27,0,0,1-.43-1.59,3.2,3.2,0,0,1,.42-1.61,2.93,2.93,0,0,1,1.2-1.19A3.25,3.25,0,0,1,160.86,194.25Zm0,.53a2.71,2.71,0,0,0-1.31.35,2.53,2.53,0,0,0-1,1,2.75,2.75,0,0,0-.35,1.35,2.78,2.78,0,0,0,.35,1.33,2.69,2.69,0,0,0,1,1,2.66,2.66,0,0,0,1.34.35,2.71,2.71,0,0,0,1.33-.36,2.52,2.52,0,0,0,1-1,2.65,2.65,0,0,0,.35-1.33,2.83,2.83,0,0,0-.36-1.34,2.53,2.53,0,0,0-1-1A2.7,2.7,0,0,0,160.86,194.78Zm-1.4,4.46v-3.46h1.19a3.09,3.09,0,0,1,.88.09.92.92,0,0,1,.6.84.91.91,0,0,1-.27.66,1,1,0,0,1-.71.31,1.05,1.05,0,0,1,.28.19,3.78,3.78,0,0,1,.52.68l.43.68h-.68l-.31-.55a3,3,0,0,0-.59-.8.63.63,0,0,0-.44-.11H160v1.46Zm.55-2h.68a1.07,1.07,0,0,0,.66-.15.46.46,0,0,0,.18-.38.44.44,0,0,0-.09-.27.46.46,0,0,0-.23-.18,1.79,1.79,0,0,0-.56-.06H160Z"/></svg>