<svg xmlns="http://www.w3.org/2000/svg" id="Capa_1" data-name="Capa 1" viewBox="0 0 228.71 79.1"><defs><style>.cls-1{fill:#003087;}.cls-2{fill:#ea0029;}.cls-3{fill:#001b54;}.cls-4{fill:#b0bad7;}.cls-5{fill:#ffd2d0;}.cls-6{fill:#8d322f;}.cls-7{fill:#fefefe;}.cls-8{fill:none;}</style></defs><path class="cls-1" d="M106.29,44.41H113a14.89,14.89,0,0,0-1.27,2.25,21,21,0,0,0-.88,2.77l-4.58,17.75a25.06,25.06,0,0,1-1,3.32A5.4,5.4,0,0,1,104,72.24a5.84,5.84,0,0,1-3,1.35,9.55,9.55,0,0,1-1.72.22H82.2c-.65,0-1.52,0-2.63-.15a4.63,4.63,0,0,1-3.19-1.53,5.05,5.05,0,0,1-1.2-3.47,11.62,11.62,0,0,1,.44-2.9l4.52-17.47a9.72,9.72,0,0,0,.28-2.3,4.78,4.78,0,0,0-.31-1.58H93.28A13.32,13.32,0,0,0,92,46.66a21.28,21.28,0,0,0-.88,2.78L86.83,66a5.37,5.37,0,0,0-.21,1.33,1.35,1.35,0,0,0,.58,1.3,4.91,4.91,0,0,0,2.25.34h9a3.3,3.3,0,0,0,2.28-.61,2.15,2.15,0,0,0,.56-.71,13.46,13.46,0,0,0,.5-1.77l4.55-17.6a9.23,9.23,0,0,0,.28-2.3A4.91,4.91,0,0,0,106.29,44.41Z"></path><path class="cls-1" d="M123,52.23l-.52,2a3.85,3.85,0,0,1,1.32-1.63,5.16,5.16,0,0,1,2.29-.36h7.1A5.86,5.86,0,0,1,137.75,54a5.52,5.52,0,0,1,1.48,3.84,14.09,14.09,0,0,1-.52,3.45l-2.26,8.7a9.05,9.05,0,0,0-.28,2.32,4.21,4.21,0,0,0,.32,1.55H124.05a12.56,12.56,0,0,0,1.26-2.22,22,22,0,0,0,.88-2.79l2.45-9.57a13.06,13.06,0,0,0,.36-1.7,1,1,0,0,0-.93-1.05,5.48,5.48,0,0,0-1.09-.07h-2.54a2.89,2.89,0,0,0-1.77.41,3.3,3.3,0,0,0-.83,1.66l-3,11.46a9.15,9.15,0,0,0-.28,2.34,5.33,5.33,0,0,0,.26,1.53H106.44a14.8,14.8,0,0,0,1.26-2.22,20.29,20.29,0,0,0,.89-2.79l3.3-12.69a9.25,9.25,0,0,0,.28-2.31,4.58,4.58,0,0,0-.32-1.57Z"></path><path class="cls-1" d="M156.32,52.23l-4.56,17.69a9.37,9.37,0,0,0-.28,2.36,5.29,5.29,0,0,0,.25,1.53H139.3a12.81,12.81,0,0,0,1.28-2.22,22,22,0,0,0,.88-2.79l3.3-12.69A9.74,9.74,0,0,0,145,53.8a4.55,4.55,0,0,0-.31-1.57Zm2-7.82-1.47,5.73H146.27l1.49-5.73Z"></path><path class="cls-1" d="M167.87,52.23H181a12.48,12.48,0,0,1,2.26.15,5.38,5.38,0,0,1,1.57.62,5.09,5.09,0,0,1,2,2,5.74,5.74,0,0,1,.72,2.84,10.13,10.13,0,0,1-.37,2.47l-2.05,7.89a11,11,0,0,1-1,2.65,6.12,6.12,0,0,1-1.54,1.67,5.49,5.49,0,0,1-2.26,1,20.3,20.3,0,0,1-3.87.27h-13a20.49,20.49,0,0,1-3.4-.18,4.39,4.39,0,0,1-1.76-.87,5.32,5.32,0,0,1-2.06-4.35,7.55,7.55,0,0,1,.28-1.82l2.44-9.46a5.76,5.76,0,0,1,2.7-3.84Q163.54,52.22,167.87,52.23Zm1.29,6.1-2.26,8.82a10.73,10.73,0,0,0-.28,1.24,1,1,0,0,0,.5.94,3.32,3.32,0,0,0,1.59.29h3.14a3.81,3.81,0,0,0,1.92-.33,2.53,2.53,0,0,0,.8-1.5l2.18-8.36A6.7,6.7,0,0,0,177,57.9a1.26,1.26,0,0,0-.52-1.14,3.18,3.18,0,0,0-1.69-.35h-2.67a4.21,4.21,0,0,0-2.08.37A2.64,2.64,0,0,0,169.16,58.33Zm13.34-15.2-5.73,7h-6l4.41-7Z"></path><path class="cls-1" d="M203.18,52.23l-.51,2A3.85,3.85,0,0,1,204,52.59a5.16,5.16,0,0,1,2.29-.36h7.1A5.89,5.89,0,0,1,217.94,54a5.56,5.56,0,0,1,1.47,3.84,14.51,14.51,0,0,1-.51,3.45l-2.27,8.7a9.51,9.51,0,0,0-.28,2.32,4.43,4.43,0,0,0,.32,1.55H204.24a12.43,12.43,0,0,0,1.25-2.22,19.18,19.18,0,0,0,.88-2.79l2.46-9.57a13.06,13.06,0,0,0,.36-1.7,1,1,0,0,0-.93-1.05,5.61,5.61,0,0,0-1.1-.07h-2.53a2.87,2.87,0,0,0-1.77.41,3.15,3.15,0,0,0-.82,1.66l-3,11.46a9.15,9.15,0,0,0-.28,2.34,5.29,5.29,0,0,0,.25,1.53H186.62a15,15,0,0,0,1.27-2.22,21.78,21.78,0,0,0,.89-2.79l3.3-12.69a9.74,9.74,0,0,0,.28-2.31,4.58,4.58,0,0,0-.32-1.57Z"></path><path class="cls-1" d="M222.85,68.67a2.71,2.71,0,0,1,1.31.35,2.44,2.44,0,0,1,1,1,2.72,2.72,0,0,1,.36,1.34,2.75,2.75,0,0,1-.35,1.33,2.48,2.48,0,0,1-1,1,2.69,2.69,0,0,1-1.33.36,2.63,2.63,0,0,1-1.33-.36,2.44,2.44,0,0,1-1-1,2.75,2.75,0,0,1-.35-1.33,2.72,2.72,0,0,1,.36-1.34,2.44,2.44,0,0,1,1-1A2.77,2.77,0,0,1,222.85,68.67Zm0,.45a2.21,2.21,0,0,0-1.1.29,2.07,2.07,0,0,0-.84.82,2.27,2.27,0,0,0-.3,1.12,2.2,2.2,0,0,0,.3,1.11,2.14,2.14,0,0,0,.83.83,2.3,2.3,0,0,0,1.11.29,2.36,2.36,0,0,0,1.11-.29,2.11,2.11,0,0,0,.82-.83,2.2,2.2,0,0,0,.3-1.11,2.27,2.27,0,0,0-.3-1.12,2,2,0,0,0-.84-.82A2.17,2.17,0,0,0,222.85,69.12Zm-1.18,3.71V70h1a2.56,2.56,0,0,1,.74.08.75.75,0,0,1,.49.7.77.77,0,0,1-.22.55.88.88,0,0,1-.6.26,1.2,1.2,0,0,1,.25.16,3.49,3.49,0,0,1,.42.57l.35.56h-.57l-.25-.45a2.13,2.13,0,0,0-.49-.67.56.56,0,0,0-.37-.1h-.27v1.22Zm.47-1.62h.56a.89.89,0,0,0,.55-.12.39.39,0,0,0,.15-.32.39.39,0,0,0-.07-.23.38.38,0,0,0-.2-.15,1.52,1.52,0,0,0-.46,0h-.53Z"></path><path class="cls-2" d="M10.79,44.78H9.12v25a3.82,3.82,0,0,0,3.81,3.81H39.37l0-2.72A28.72,28.72,0,0,1,10.79,44.78Z"></path><path class="cls-1" d="M67.94,44.78h1.67v25a3.82,3.82,0,0,1-3.82,3.81H39.36l0-2.72A28.73,28.73,0,0,0,67.94,44.78Z"></path><path class="cls-1" d="M63.73,42.18A24.37,24.37,0,1,1,39.36,17.81,24.37,24.37,0,0,1,63.73,42.18Z"></path><path class="cls-2" d="M13,42.18A26.34,26.34,0,1,0,39.36,15.84,26.36,26.36,0,0,0,13,42.18Zm2,0A24.35,24.35,0,1,1,39.36,66.53,24.38,24.38,0,0,1,15,42.18Z"></path><path class="cls-1" d="M7,41.64H8V40.23a1.28,1.28,0,0,0-.1-.55h.94a1.11,1.11,0,0,0-.11.3,1.92,1.92,0,0,0,0,.39v1.28h1.2a1.13,1.13,0,0,0,.64-.17l0,2a1.13,1.13,0,0,0-.64-.18l-3,0a1.13,1.13,0,0,0-.64.17l0-3.73.81-.13a1.34,1.34,0,0,0-.09.3c0,.08,0,.28,0,.59Z"></path><path class="cls-1" d="M6.56,37.6l.3-1.86,4-.88a1.8,1.8,0,0,0,.55-.24L11,36.74a.37.37,0,0,0-.27-.15,1.11,1.11,0,0,0-.43,0l-.48.12-.28,1.74.53.36a.71.71,0,0,0,.28.12.66.66,0,0,0,.29,0l-.19,1.18a3.73,3.73,0,0,0-.71-.63l-2.93-2A.66.66,0,0,0,6.56,37.6Zm2.56-.68-1.39.33,1.21.8Z"></path><path class="cls-1" d="M10.42,31.9l-.16.48,1.12.39a1,1,0,0,0,.66,0l-.65,1.87a1.15,1.15,0,0,0-.54-.38L8,33.31a1.15,1.15,0,0,0-.65,0L8.51,30a2.72,2.72,0,0,1,.23-.5A.69.69,0,0,1,9,29.2a.89.89,0,0,1,.72,0l.87.3a1.06,1.06,0,0,1,.38.21.5.5,0,0,1,.07.49l0,.11,1.37-.14A3.23,3.23,0,0,0,13,30l-.62,1.77Zm-.82.25.3-.86c0-.14,0-.23,0-.28s-.12-.11-.26-.17l-.21-.07a.72.72,0,0,0-.38-.07c-.06,0-.12.12-.17.28l-.29.82Z"></path><path class="cls-1" d="M12.9,26.51l-1.68-2,1.1-1.89a1,1,0,0,0,.46.47l2.6,1.53a1.09,1.09,0,0,0,.63.16l-1,1.7a1.1,1.1,0,0,0-.45-.47L12.3,24.74l2.24,2.6-.58,1-3.36-.7L12.87,29a1,1,0,0,0,.63.16L13,30a1.12,1.12,0,0,0-.45-.48L9.91,28a1.1,1.1,0,0,0-.64-.16L10.38,26Z"></path><path class="cls-1" d="M13.91,20.81l1.25-1.41L19,20.77a1.68,1.68,0,0,0,.59.08l-1.42,1.61a.45.45,0,0,0-.14-.27,1.18,1.18,0,0,0-.39-.19l-.47-.16L16,23.16l.26.59a.72.72,0,0,0,.17.25.57.57,0,0,0,.27.12l-.8.9a3.4,3.4,0,0,0-.26-.92l-1.41-3.25A.83.83,0,0,0,13.91,20.81Zm2.53.79-1.35-.46.59,1.32Z"></path><path class="cls-1" d="M19.68,15.31l.67.58A.8.8,0,0,0,20,16a2.16,2.16,0,0,0-.4.29l-.69.57a1.14,1.14,0,0,0-.19.18.27.27,0,0,0,0,.14.26.26,0,0,0,0,.15l.18.25L20.07,19a.58.58,0,0,0,.35.24.69.69,0,0,0,.41-.21l.65-.53a2,2,0,0,0,.54-.63l.43.73-2,1.67a1,1,0,0,1-.85.26,1,1,0,0,1-.39-.14,1.59,1.59,0,0,1-.37-.37l-1.17-1.41a1.73,1.73,0,0,1-.29-.44,1,1,0,0,1-.07-.4,1.06,1.06,0,0,1,.42-.79Z"></path><path class="cls-1" d="M24.44,17.29l-1.65,1.08a1.12,1.12,0,0,0-.2-.62l-1.65-2.52a1,1,0,0,0-.49-.43l1.65-1.09a1.07,1.07,0,0,0,.2.63L24,16.86A1.06,1.06,0,0,0,24.44,17.29Z"></path><path class="cls-1" d="M24.06,12.6l1.7-.82,3,2.74a1.71,1.71,0,0,0,.52.31l-1.94.94a.44.44,0,0,0,0-.3,1.17,1.17,0,0,0-.28-.33l-.38-.33-1.58.77v.64a1.05,1.05,0,0,0,.06.3.93.93,0,0,0,.2.21l-1.08.53a3.1,3.1,0,0,0,.11-1l0-3.55A.92.92,0,0,0,24.06,12.6Zm2,1.71L25,13.37l0,1.44Z"></path><path class="cls-1" d="M31.74,9.71l.39.79a.88.88,0,0,0-.53,0l-.18.06L30,11a.34.34,0,0,0-.2.12.21.21,0,0,0,0,.18l0,.14c0,.1.07.17.12.18a.5.5,0,0,0,.28,0l1-.3a4,4,0,0,1,.57-.13.74.74,0,0,1,.34.07.9.9,0,0,1,.43.59l.33,1.13a.86.86,0,0,1-.08.73.85.85,0,0,1-.25.25,3.36,3.36,0,0,1-.5.19l-2.72.8L29,14.09a1.14,1.14,0,0,0,.36,0,5.45,5.45,0,0,0,.57-.14l1.19-.35.25-.09a.2.2,0,0,0,0-.09.5.5,0,0,0,0-.14l0-.13a.41.41,0,0,0-.09-.19.19.19,0,0,0-.17,0l-1.16.34a3.21,3.21,0,0,1-.56.13.7.7,0,0,1-.33,0,.93.93,0,0,1-.44-.61l-.33-1.13a.87.87,0,0,1,.08-.73.71.71,0,0,1,.25-.24,2.52,2.52,0,0,1,.5-.19Z"></path><path class="cls-1" d="M34.9,13.4a1.09,1.09,0,0,0,.14-.64l-.23-3a1,1,0,0,0-.22-.62l3.52-.26a1.29,1.29,0,0,1,.48.06.85.85,0,0,1,.39.23,1.3,1.3,0,0,1,.31.85l.13,1.82a1.34,1.34,0,0,1-.17.9,1,1,0,0,1-.36.27,1.1,1.1,0,0,1-.47.13Zm1.74-.83.78-.05a.55.55,0,0,0,.34-.12.86.86,0,0,0,.05-.42l-.14-1.86a.84.84,0,0,0-.08-.37.43.43,0,0,0-.38-.1l-.78.06Z"></path><path class="cls-1" d="M42,9.68l-.08,1,1.3.11a1.63,1.63,0,0,0,.62-.05l-.08.91a.78.78,0,0,0-.47-.15l-1.43-.12-.1,1.12,1.59.13a1.77,1.77,0,0,0,.61-.09l-.21.83-3.83-.32a1.1,1.1,0,0,0,.22-.61l.25-3a1.06,1.06,0,0,0-.12-.65L44,9.14,44,10a1.71,1.71,0,0,0-.3-.1,3,3,0,0,0-.45-.06Z"></path><path class="cls-2" d="M45.66,13.75A1.15,1.15,0,0,0,46,13.2l.89-2.88a1.07,1.07,0,0,0,0-.66l3.37,1.05a1.37,1.37,0,0,1,.43.23,1.11,1.11,0,0,1,.28.35,1.3,1.3,0,0,1,0,.91L50.43,14a1.25,1.25,0,0,1-.48.76.9.9,0,0,1-.43.13,1.16,1.16,0,0,1-.49-.05Zm1.93-.14.74.23a.46.46,0,0,0,.35,0c.08,0,.14-.17.2-.36l.56-1.79a1.07,1.07,0,0,0,.06-.37.46.46,0,0,0-.32-.23l-.74-.23Z"></path><path class="cls-2" d="M53.55,12.85l-.47.93,1.18.59a1.74,1.74,0,0,0,.59.18l-.4.82a.83.83,0,0,0-.39-.32l-1.28-.64-.5,1,1.42.7a1.81,1.81,0,0,0,.61.13l-.5.7-3.46-1.7a1,1,0,0,0,.44-.49l1.34-2.7a1,1,0,0,0,.11-.64l3.38,1.66-.24.77a2.94,2.94,0,0,0-.24-.21c-.06,0-.19-.11-.4-.21Z"></path><path class="cls-2" d="M59.64,15.77l-.37.79a.89.89,0,0,0-.31-.42L58.8,16l-1.21-.84a.46.46,0,0,0-.22-.09.22.22,0,0,0-.15.1l-.08.13c-.07.09-.09.16-.07.2s.08.12.2.2l.87.6a2.74,2.74,0,0,1,.46.37.69.69,0,0,1,.16.29,1,1,0,0,1-.19.72l-.67,1a.89.89,0,0,1-.61.4.85.85,0,0,1-.36,0,3.12,3.12,0,0,1-.46-.28l-2.33-1.6.36-.79a1.14,1.14,0,0,0,.21.3,5.51,5.51,0,0,0,.46.35l1,.71a1,1,0,0,0,.23.13.16.16,0,0,0,.1,0,.65.65,0,0,0,.09-.11l.08-.11a.41.41,0,0,0,.09-.2.19.19,0,0,0-.1-.13l-1-.68a3.83,3.83,0,0,1-.45-.36.7.7,0,0,1-.18-.29.93.93,0,0,1,.2-.73l.67-1a.89.89,0,0,1,.61-.4.85.85,0,0,1,.36,0,2.57,2.57,0,0,1,.46.27Z"></path><path class="cls-2" d="M63.2,19l-.49.74a.81.81,0,0,0-.13-.31,2,2,0,0,0-.34-.36l-.65-.61a1.37,1.37,0,0,0-.21-.17.27.27,0,0,0-.15,0,.35.35,0,0,0-.14.06,1.26,1.26,0,0,0-.22.21l-1.24,1.33a.56.56,0,0,0-.19.38.7.7,0,0,0,.25.38l.62.57a2,2,0,0,0,.69.46l-.66.52-1.92-1.78a1.06,1.06,0,0,1-.37-.82.87.87,0,0,1,.09-.4,1.85,1.85,0,0,1,.31-.42l1.25-1.34a1.6,1.6,0,0,1,.4-.34.81.81,0,0,1,.39-.12,1,1,0,0,1,.84.31Z"></path><path class="cls-2" d="M65.14,21.23a1.13,1.13,0,0,0-.61.25L62.62,23c-.15.11-.24.2-.26.27a.42.42,0,0,0,.12.37l.82,1c.1.13.2.21.28.21a.74.74,0,0,0,.37-.19l1.92-1.51a1.09,1.09,0,0,0,.39-.53l.65.84a1.08,1.08,0,0,0-.6.25l-1.91,1.5a2.09,2.09,0,0,1-.44.27.91.91,0,0,1-.41.06,1.09,1.09,0,0,1-.78-.44l-1.43-1.82a1.09,1.09,0,0,1-.24-.86.88.88,0,0,1,.16-.38,1.82,1.82,0,0,1,.37-.37l1.91-1.49a1.1,1.1,0,0,0,.38-.53Z"></path><path class="cls-2" d="M67.6,26.11l-.92.51.64,1.14a1.56,1.56,0,0,0,.38.48l-.79.45a.85.85,0,0,0-.14-.48L66.07,27l-1,.55.77,1.38a1.72,1.72,0,0,0,.43.46l-.82.29L63.6,26.28a1.19,1.19,0,0,0,.64-.15l2.63-1.47a1.15,1.15,0,0,0,.47-.46l1.82,3.28-.63.5a1.74,1.74,0,0,0-.08-.3,4.37,4.37,0,0,0-.2-.41Z"></path><path class="cls-2" d="M70.39,30.5l-2.63,2.72,2.6-1a1.1,1.1,0,0,0,.54-.38l.36,1a1,1,0,0,0-.65,0l-3.42,1.25-.71-1.94,2.67-2.81-2.67,1a1.08,1.08,0,0,0-.53.39l-.37-1a1.19,1.19,0,0,0,.66-.05l2.82-1a1.1,1.1,0,0,0,.54-.38Z"></path><path class="cls-2" d="M67.43,35.42a1,1,0,0,0,.65,0L71,34.91l-.15-.74a1.8,1.8,0,0,0-.09-.33.81.81,0,0,0-.14-.2l.84,0,.77,3.94-.79.28a.79.79,0,0,0,0-.24,1.21,1.21,0,0,0,0-.34l-.14-.74-2.89.56a1.13,1.13,0,0,0-.58.3Z"></path><path class="cls-2" d="M72.38,39.69l.07,2.49a1.27,1.27,0,0,1-.07.48,1,1,0,0,1-.24.38,1.36,1.36,0,0,1-.87.27l-1.83.06a1.27,1.27,0,0,1-.89-.22,1.11,1.11,0,0,1-.26-.36,1.29,1.29,0,0,1-.11-.47l-.08-2.5a1.61,1.61,0,0,1,.08-.48,1.12,1.12,0,0,1,.24-.38,1.3,1.3,0,0,1,.87-.26l1.83-.06a1.3,1.3,0,0,1,.88.21,1,1,0,0,1,.27.36A1.53,1.53,0,0,1,72.38,39.69Zm-1.19.56-1.87.06a.88.88,0,0,0-.37.07.45.45,0,0,0-.11.38v.58c0,.17,0,.29.11.34a.74.74,0,0,0,.41.07l1.86-.06a.94.94,0,0,0,.38-.07.42.42,0,0,0,.11-.37l0-.64c0-.15,0-.25-.11-.29A.74.74,0,0,0,71.19,40.25Z"></path><path class="cls-3" d="M57.85,27.28A23.8,23.8,0,0,1,21,57.35a23.81,23.81,0,1,0,36.9-30.07Z"></path><path class="cls-4" d="M21,57.36a23.81,23.81,0,0,1,36.9-30.07A23.81,23.81,0,1,0,21,57.36Z"></path><path class="cls-5" d="M14.56,35.57a26,26,0,0,1,42.15-12.7A26,26,0,1,0,22.07,61.59,26,26,0,0,1,14.56,35.57Z"></path><path class="cls-6" d="M64.2,48.87A26,26,0,0,1,32.28,67.06a25.71,25.71,0,0,1-10.23-5.49A26,26,0,1,0,56.69,22.85,26,26,0,0,1,64.2,48.87Z"></path><path class="cls-4" d="M47.46,70.38A22.21,22.21,0,0,0,67,51.3,27,27,0,0,1,47.46,70.38Z"></path><path class="cls-6" d="M32.22,70.6c-8.16-.84-9.91-5.28-9.51-4.48C24.15,67.34,26.2,69.41,32.22,70.6Z"></path><polygon class="cls-6" points="22.58 73.13 38.82 73.13 38.82 71.18 38.29 72.64 22.58 73.13"></polygon><path class="cls-5" d="M11.7,71c-1.92-1.92-1.61-18.58-1.61-18.58v18h0a2.39,2.39,0,0,0,2.4,2.34h4.43S13.62,72.93,11.7,71Z"></path><path class="cls-3" d="M67,71c1.93-1.92,1.61-18.58,1.61-18.58v18h0a2.39,2.39,0,0,1-2.4,2.34H52.73S65,72.93,67,71Z"></path><path class="cls-7" d="M51.35,27.72a15.51,15.51,0,0,1,2.36.18,14.86,14.86,0,0,1,.22,2.39A14.55,14.55,0,0,1,49,41.18h0a15.55,15.55,0,0,1-1.44,1.13h0a14.82,14.82,0,0,1-2.69,1.45,17.12,17.12,0,0,1-.24,1.77,15.84,15.84,0,0,0,4.21-2.22h0a14.66,14.66,0,0,0,1.24-1h0a16.12,16.12,0,0,0,5.39-12A16.37,16.37,0,0,0,55.17,27l-.11-.51-.51-.1a15.79,15.79,0,0,0-3.2-.29,16.09,16.09,0,0,0-11,4.33c.36.39.69.79,1,1.21A14.49,14.49,0,0,1,51.35,27.72Z"></path><path class="cls-7" d="M27.31,56.9A15.48,15.48,0,0,1,25,56.72a14.86,14.86,0,0,1-.22-2.39,14.54,14.54,0,0,1,4.94-10.91h0l.08-.07,0,0h0c.42-.36.85-.69,1.29-1h0a14.06,14.06,0,0,1,2.67-1.45c.06-.6.14-1.2.25-1.78a16.3,16.3,0,0,0-4.21,2.22h0c-.43.32-.84.65-1.24,1a16.12,16.12,0,0,0-5.39,12,15.65,15.65,0,0,0,.34,3.24l.1.52.52.1a16.51,16.51,0,0,0,3.19.29,16.05,16.05,0,0,0,11-4.33c-.35-.39-.69-.8-1-1.21A14.52,14.52,0,0,1,27.31,56.9Z"></path><path class="cls-7" d="M36.76,42.31a13.29,13.29,0,0,1,.11-1.68h0a14.06,14.06,0,0,1,.47-2.34h0a.29.29,0,0,1,0-.09c0-.11.07-.22.1-.33h0a14.11,14.11,0,0,1,1-2.4,12.43,12.43,0,0,0-1-1.41,15.92,15.92,0,0,0-1.84,4.53h0a16.11,16.11,0,0,0-.32,1.71h0a16.52,16.52,0,0,0-.14,2c0,.13,0,.27,0,.4a12.51,12.51,0,0,0,1.6.41Q36.76,42.72,36.76,42.31Z"></path><path class="cls-7" d="M43.35,44.3v-.08c0-.2,0-.4.07-.6h0c0-.44.06-.87.06-1.31,0-.13,0-.26,0-.38a11.77,11.77,0,0,0-1.6-.44c0,.27,0,.54,0,.82a15.34,15.34,0,0,1-.2,2.36h0a15,15,0,0,1-.51,2.13h0a13.7,13.7,0,0,1-1,2.33,12.52,12.52,0,0,0,1,1.41A16,16,0,0,0,43,46h0a16.09,16.09,0,0,0,.31-1.71Z"></path><path class="cls-7" d="M39.33,44.88A14.18,14.18,0,0,1,37,44.67h0a15.3,15.3,0,0,1-2.15-.51h0a14.41,14.41,0,0,1-2.32-1,12.43,12.43,0,0,0-1.41,1A16,16,0,0,0,35.63,46h0a16.07,16.07,0,0,0,1.71.3h0l.32,0,.3,0c.45,0,.91.07,1.37.07h.41a14.43,14.43,0,0,0,.41-1.6C39.88,44.87,39.61,44.88,39.33,44.88Z"></path><path class="cls-7" d="M39.33,39.74a14.2,14.2,0,0,1,1.61.1h0a13.73,13.73,0,0,1,2.41.49v0a14.64,14.64,0,0,1,2.81,1.14,12.63,12.63,0,0,0,1.42-1,16.32,16.32,0,0,0-4.44-1.81,15.61,15.61,0,0,0-1.81-.34h0a14.71,14.71,0,0,0-2-.14h-.39a12.15,12.15,0,0,0-.43,1.6C38.78,39.75,39.06,39.74,39.33,39.74Z"></path><path class="cls-7" d="M24.74,30.29a15.83,15.83,0,0,1,.19-2.38,14.72,14.72,0,0,1,2.38-.19,14.53,14.53,0,0,1,10.92,4.94h0l.06.08s0,0,0,0h0a13.88,13.88,0,0,1,1,1.29h0a14.14,14.14,0,0,1,1.45,2.68,17.33,17.33,0,0,1,1.78.25,15.84,15.84,0,0,0-2.22-4.21h0a14.78,14.78,0,0,0-1-1.24h0a16.35,16.35,0,0,0-15.25-5.09l-.51.11-.1.51a15.47,15.47,0,0,0-.31,3.23,16.06,16.06,0,0,0,4.34,11c.39-.35.79-.69,1.2-1A14.54,14.54,0,0,1,24.74,30.29Z"></path><path class="cls-7" d="M50,44.36a14.53,14.53,0,0,1,4,10,15.61,15.61,0,0,1-.19,2.34,13.85,13.85,0,0,1-2.39.23,14.49,14.49,0,0,1-10.92-5h0l0,0-.07-.08h0a14.89,14.89,0,0,1-1-1.29h0a14.41,14.41,0,0,1-1.45-2.68,17.12,17.12,0,0,1-1.77-.24,16,16,0,0,0,2.22,4.21h0a14.66,14.66,0,0,0,1,1.24h0a16.13,16.13,0,0,0,12,5.39,16.3,16.3,0,0,0,3.25-.36l.51-.11.1-.51a16.35,16.35,0,0,0-4-14.14C50.78,43.71,50.38,44.05,50,44.36Z"></path><rect class="cls-8" x="-702.15" y="-1523.64" width="2169" height="1561.5"></rect></svg>